<svg width="259" height="212" viewBox="50 50 280 112" fill="none" xmlns="http://www.w3.org/2000/svg">

<path d="M161.174 111.145H160.391C159.5 109.757 158.161 108.595 156.52 107.786C154.88 106.976 152.999 106.549 151.083 106.552H139.752V103.505C145.127 102.153 150.017 99.7465 153.995 96.494C157.973 93.2416 160.919 89.2421 162.577 84.8441C163.627 82.1152 164.155 79.2695 164.141 76.4083V72.875H166.839C167.918 72.9265 168.998 72.7971 170.014 72.4947C171.029 72.1923 171.958 71.7233 172.744 71.1163C173.53 70.5094 174.157 69.7774 174.585 68.9653C175.013 68.1532 175.234 67.278 175.234 66.3935C175.234 65.509 175.013 64.6339 174.585 63.8217C174.157 63.0096 173.53 62.2776 172.744 61.6707C171.958 61.0638 171.029 60.5947 170.014 60.2923C168.998 59.9899 167.918 59.8605 166.839 59.9121H164.141V56.2683C164.071 53.2106 164.544 50.1607 165.544 47.2141C168.242 39.5291 167.595 33.4341 163.737 29.0616C158.692 23.3421 149.438 22.1937 144.366 22.0171C142.061 21.8804 139.786 21.5095 137.594 20.9129C128.448 18.5941 121.406 18.5279 116.307 20.7141C114.327 21.5419 112.693 22.8334 111.613 24.4241C108.807 24.0549 105.933 24.2655 103.252 25.0369C100.571 25.8082 98.1682 27.1158 96.2617 28.8408C88.4917 36.4816 91.2166 51.7191 93.348 59.7575H92.2149C91.1361 59.7059 90.0559 59.8353 89.0404 60.1377C88.025 60.4401 87.0958 60.9092 86.3097 61.5161C85.5237 62.123 84.8974 62.855 84.4694 63.6672C84.0414 64.4793 83.8206 65.3545 83.8206 66.2389C83.8206 67.1234 84.0414 67.9986 84.4694 68.8107C84.8974 69.6228 85.5237 70.3548 86.3097 70.9617C87.0958 71.5687 88.025 72.0377 89.0404 72.3401C90.0559 72.6426 91.1361 72.772 92.2149 72.7204H94.9128V76.4083C94.9111 82.4519 97.2648 88.3383 101.632 93.2115C105.999 98.0847 112.151 101.691 119.194 103.505V106.552H108.861C106.944 106.544 105.061 106.969 103.419 107.779C101.778 108.589 100.44 109.754 99.5532 111.145H97.8265C90.3704 111.151 83.2213 113.577 77.9465 117.89C72.6716 122.204 69.7015 128.053 69.6873 134.156V178.5C69.6873 178.792 69.8294 179.073 70.0824 179.28C70.3353 179.487 70.6784 179.604 71.0362 179.604H187.964C188.322 179.604 188.665 179.487 188.918 179.28C189.171 179.073 189.313 178.792 189.313 178.5V134.156C189.299 128.053 186.328 122.204 181.054 117.89C175.779 113.577 168.63 111.151 161.174 111.145ZM164.141 62.0321H166.839C167.556 61.9898 168.276 62.069 168.954 62.2646C169.633 62.4602 170.254 62.7681 170.78 63.169C171.307 63.57 171.727 64.0553 172.014 64.5949C172.301 65.1345 172.449 65.7167 172.449 66.3052C172.449 66.8937 172.301 67.4759 172.014 68.0154C171.727 68.555 171.307 69.0404 170.78 69.4413C170.254 69.8423 169.633 70.1501 168.954 70.3458C168.276 70.5414 167.556 70.6205 166.839 70.5783H164.141V62.0321ZM151.083 108.76C152.252 108.764 153.405 108.98 154.459 109.393C155.513 109.805 156.443 110.404 157.181 111.145H139.752V108.76H151.083ZM144.393 113.354L139.752 117.77V113.354H144.393ZM94.8858 70.6666H92.1879C91.4708 70.7089 90.7507 70.6297 90.0726 70.4341C89.3945 70.2385 88.7729 69.9306 88.2466 69.5297C87.7203 69.1287 87.3005 68.6434 87.0135 68.1038C86.7265 67.5642 86.5784 66.982 86.5784 66.3935C86.5784 65.805 86.7265 65.2228 87.0135 64.6832C87.3005 64.1437 87.7203 63.6583 88.2466 63.2574C88.7729 62.8564 89.3945 62.5486 90.0726 62.3529C90.7507 62.1573 91.4708 62.0782 92.1879 62.1204H93.9685C94.3462 63.4012 94.67 64.3287 94.8318 64.8146L94.8858 70.6666ZM95.911 58.9183C93.8876 51.145 91.5404 37.1662 98.3661 30.4529C101.415 27.4496 106.109 26.2129 112.314 26.7871C112.629 26.8192 112.948 26.7593 113.215 26.6179C113.481 26.4765 113.678 26.2627 113.771 26.0141C114.523 24.5814 115.884 23.4202 117.602 22.7458C120.57 21.4429 126.343 20.5375 136.811 23.0991C139.199 23.7278 141.673 24.1062 144.177 24.2254C148.763 24.38 157.1 25.3958 161.47 30.3646C164.816 34.1408 165.274 39.6175 162.846 46.6179C161.791 49.7677 161.292 53.0248 161.362 56.2904V60.4862C160.94 60.802 160.439 61.0402 159.895 61.1849C159.351 61.3296 158.775 61.3775 158.206 61.3254C157.262 61.0825 156.479 59.9121 156.048 58.035C155.832 57.1737 155.67 56.2021 155.508 55.1862C154.348 48.0754 152.567 37.5196 132.306 37.5196H131.119C128.015 37.5787 124.932 37.0891 122.081 36.0841C121.379 35.8412 120.597 35.5983 119.815 35.3775C116.849 34.5235 113.6 34.6098 110.709 35.6195C107.817 36.6292 105.493 38.4889 104.194 40.8321C100.739 46.6018 97.9655 52.6285 95.911 58.83V58.9183ZM99.0406 84.2479C98.0693 81.7411 97.5778 79.1264 97.5837 76.4966V64.9471C97.5967 64.859 97.5967 64.7701 97.5837 64.6821C97.5837 58.3441 103.222 47.5012 106.568 41.605C107.598 39.7645 109.429 38.3039 111.703 37.5079C113.978 36.7118 116.533 36.6373 118.87 37.2987L121.002 37.9612C124.205 39.0803 127.663 39.6298 131.146 39.5733C150.274 39.1758 151.677 48.1637 152.729 55.385C152.891 56.445 153.08 57.4608 153.269 58.3662C153.916 61.1266 155.265 62.7829 157.262 63.335C158.599 63.6421 160.029 63.5156 161.255 62.9816V76.4083C161.26 82.6611 158.526 88.7081 153.548 93.4511C148.57 98.1941 141.679 101.318 134.127 102.256C126.574 103.195 118.861 101.884 112.388 98.5637C105.916 95.243 101.113 90.1322 98.8517 84.1596L99.0406 84.2479ZM137.054 104.123V120.332L129.5 127.399L121.946 120.244V104.079C124.435 104.53 126.977 104.76 129.527 104.763C132.06 104.772 134.586 104.542 137.054 104.079V104.123ZM108.861 108.76H119.248V111.145H102.764C103.499 110.401 104.428 109.801 105.483 109.388C106.538 108.976 107.692 108.761 108.861 108.76ZM119.248 113.354V117.77L114.662 113.354H119.248ZM99.6071 135.68C100.797 135.68 101.96 135.969 102.95 136.51C103.939 137.051 104.71 137.82 105.166 138.72C105.621 139.62 105.74 140.61 105.508 141.565C105.276 142.521 104.703 143.398 103.861 144.087C103.02 144.775 101.948 145.244 100.781 145.435C99.6138 145.625 98.4041 145.527 97.3048 145.154C96.2054 144.782 95.2658 144.15 94.6047 143.34C93.9436 142.531 93.5908 141.579 93.5908 140.605C93.5908 139.298 94.2247 138.046 95.3529 137.122C96.4812 136.199 98.0115 135.68 99.6071 135.68ZM186.615 177.395H72.3852V134.156C72.3994 128.639 75.0853 123.351 79.8542 119.452C84.623 115.552 91.0859 113.36 97.8265 113.354H98.528C98.3438 113.968 98.2531 114.598 98.2582 115.231V133.582C96.0978 133.86 94.145 134.795 92.7896 136.199C91.4342 137.604 90.7759 139.376 90.9462 141.16C91.1165 142.945 92.1029 144.611 93.7083 145.827C95.3138 147.042 97.4202 147.717 99.6071 147.717C101.794 147.717 103.901 147.042 105.506 145.827C107.111 144.611 108.098 142.945 108.268 141.16C108.438 139.376 107.78 137.604 106.425 136.199C105.069 134.795 103.116 133.86 100.956 133.582V115.231C100.952 114.594 101.07 113.96 101.307 113.354H111.1L119.194 121.061L128.421 129.894C128.552 130.023 128.717 130.126 128.904 130.195C129.091 130.264 129.295 130.297 129.5 130.292C129.693 130.29 129.884 130.256 130.061 130.192C130.237 130.127 130.395 130.033 130.525 129.916L147.927 113.464H158.718C158.955 114.071 159.074 114.704 159.069 115.341V129.717C154.051 131.068 149.859 133.946 147.36 137.756C145.065 141.103 143.314 144.681 142.153 148.4C141.231 150.359 141.08 152.506 141.722 154.539C142.404 155.777 143.426 156.869 144.708 157.731C145.991 158.592 147.498 159.2 149.114 159.508C149.251 159.924 149.554 160.291 149.974 160.55C150.394 160.81 150.908 160.948 151.434 160.943C152.078 160.943 152.696 160.734 153.151 160.361C153.606 159.988 153.862 159.483 153.862 158.956C153.862 158.429 153.606 157.923 153.151 157.55C152.696 157.178 152.078 156.968 151.434 156.968C150.882 156.962 150.346 157.119 149.923 157.41C148.712 157.191 147.575 156.755 146.595 156.132C145.615 155.51 144.817 154.717 144.258 153.81C143.84 152.201 144.008 150.527 144.743 148.996C145.844 145.474 147.495 142.082 149.654 138.904C151.831 135.667 155.353 133.176 159.582 131.882H161.255C165.483 133.176 169.005 135.667 171.183 138.904C173.342 142.082 174.992 145.474 176.093 148.996C176.828 150.527 176.997 152.201 176.579 153.81C176.02 154.717 175.221 155.51 174.241 156.132C173.261 156.755 172.124 157.191 170.913 157.41C170.491 157.119 169.954 156.962 169.402 156.968C168.758 156.968 168.141 157.178 167.685 157.55C167.23 157.923 166.974 158.429 166.974 158.956C166.974 159.483 167.23 159.988 167.685 160.361C168.141 160.734 168.758 160.943 169.402 160.943C169.932 160.947 170.449 160.806 170.869 160.542C171.29 160.278 171.59 159.906 171.722 159.486C173.336 159.181 174.841 158.576 176.123 157.718C177.405 156.86 178.429 155.773 179.115 154.539C179.756 152.506 179.605 150.359 178.683 148.4C177.522 144.681 175.772 141.103 173.476 137.756C170.978 133.946 166.786 131.068 161.767 129.717V115.231C161.772 114.598 161.682 113.968 161.497 113.354C168.196 113.412 174.597 115.628 179.313 119.521C184.03 123.415 186.682 128.673 186.696 134.156L186.615 177.395Z" fill="#231F20"/>
<path d="M114.581 66.25C114.581 66.5429 114.723 66.8237 114.976 67.0308C115.229 67.2379 115.572 67.3542 115.929 67.3542C116.287 67.3542 116.63 67.2379 116.883 67.0308C117.136 66.8237 117.278 66.5429 117.278 66.25C117.278 63.7988 114.176 61.8334 110.237 61.8334C106.298 61.8334 103.195 63.7546 103.195 66.25C103.195 66.5429 103.337 66.8237 103.59 67.0308C103.843 67.2379 104.187 67.3542 104.544 67.3542C104.902 67.3542 105.245 67.2379 105.498 67.0308C105.751 66.8237 105.893 66.5429 105.893 66.25C105.893 65.1017 107.917 64.0417 110.237 64.0417C112.557 64.0417 114.581 65.168 114.581 66.25Z" fill="#231F20"/>
<path d="M142.99 67.4204C143.347 67.4204 143.69 67.304 143.943 67.097C144.196 66.8899 144.339 66.609 144.339 66.3162C144.339 65.1679 146.389 64.1079 148.709 64.1079C151.029 64.1079 153.026 65.1237 153.026 66.3162C153.026 66.609 153.168 66.8899 153.421 67.097C153.674 67.304 154.017 67.4204 154.375 67.4204C154.733 67.4204 155.076 67.304 155.329 67.097C155.582 66.8899 155.724 66.609 155.724 66.3162C155.724 63.865 152.648 61.8995 148.709 61.8995C144.77 61.8995 141.641 63.8208 141.641 66.3162C141.641 66.609 141.783 66.8899 142.036 67.097C142.289 67.304 142.632 67.4204 142.99 67.4204Z" fill="#231F20"/>
<path d="M145.688 83.5413C145.681 83.2502 145.536 82.9726 145.285 82.7668C145.033 82.5609 144.694 82.4428 144.339 82.4371C143.981 82.4371 143.638 82.5535 143.385 82.7605C143.132 82.9676 142.99 83.2485 142.99 83.5413C142.99 88.7971 138.457 91.4692 129.5 91.4692C120.543 91.4692 116.01 88.7971 116.01 83.5413C116.01 83.2485 115.868 82.9676 115.615 82.7605C115.362 82.5535 115.019 82.4371 114.661 82.4371C114.306 82.4428 113.967 82.5609 113.715 82.7668C113.464 82.9726 113.319 83.2502 113.312 83.5413C113.313 90.1663 119.059 93.6775 129.5 93.6775C139.941 93.6775 145.688 90.078 145.688 83.5413Z" fill="#231F20"/>
<path d="M129.5 80.8249C130.265 80.8249 131.023 80.7016 131.73 80.4619C132.437 80.2221 133.08 79.8708 133.621 79.4278C134.162 78.9849 134.591 78.4591 134.884 77.8804C135.177 77.3016 135.327 76.6814 135.327 76.0549V71.6383C135.327 70.3732 134.714 69.1599 133.621 68.2654C132.528 67.3708 131.046 66.8683 129.5 66.8683C127.954 66.8683 126.472 67.3708 125.379 68.2654C124.286 69.1599 123.672 70.3732 123.672 71.6383V76.0549C123.672 76.6814 123.823 77.3016 124.116 77.8804C124.409 78.4591 124.838 78.9849 125.379 79.4278C125.92 79.8708 126.563 80.2221 127.27 80.4619C127.977 80.7016 128.735 80.8249 129.5 80.8249ZM126.37 71.572C126.37 70.8926 126.7 70.2411 127.287 69.7607C127.874 69.2803 128.67 69.0104 129.5 69.0104C130.33 69.0104 131.126 69.2803 131.713 69.7607C132.3 70.2411 132.63 70.8926 132.63 71.572V75.9887C132.63 76.6681 132.3 77.3197 131.713 77.8001C131.126 78.2805 130.33 78.5504 129.5 78.5504C128.67 78.5504 127.874 78.2805 127.287 77.8001C126.7 77.3197 126.37 76.6681 126.37 75.9887V71.572Z" fill="#231F20"/>
<path d="M99.6071 144.381C100.52 144.381 101.412 144.159 102.17 143.744C102.929 143.33 103.52 142.74 103.869 142.05C104.219 141.36 104.31 140.6 104.132 139.868C103.954 139.135 103.514 138.463 102.869 137.934C102.224 137.406 101.402 137.047 100.507 136.901C99.6122 136.755 98.6846 136.83 97.8416 137.116C96.9986 137.402 96.2781 137.886 95.7712 138.507C95.2642 139.128 94.9937 139.858 94.9937 140.605C94.9937 141.606 95.4797 142.567 96.3449 143.275C97.2101 143.983 98.3835 144.381 99.6071 144.381ZM99.6071 139.037C100.115 139.037 100.602 139.202 100.962 139.496C101.321 139.79 101.523 140.189 101.523 140.605C101.523 141.02 101.321 141.419 100.962 141.713C100.602 142.007 100.115 142.173 99.6071 142.173C99.0991 142.173 98.6118 142.007 98.2526 141.713C97.8934 141.419 97.6916 141.02 97.6916 140.605C97.6916 140.189 97.8934 139.79 98.2526 139.496C98.6118 139.202 99.0991 139.037 99.6071 139.037Z" fill="#231F20"/>
</svg>
