<svg width="226" height="226" viewBox="0 0 226 226" fill="none" xmlns="http://www.w3.org/2000/svg">
<path d="M113 218.938C54.5861 218.938 7.0625 171.414 7.0625 113C7.0625 87.2501 16.4062 62.4325 33.3844 43.1166C34.6769 41.6546 36.9086 41.5204 38.3706 42.7987C39.8325 44.0841 39.9738 46.3229 38.6954 47.7849C22.8472 65.8013 14.125 88.9663 14.125 113C14.125 167.522 58.4775 211.875 113 211.875C167.522 211.875 211.875 167.522 211.875 113C211.875 58.4775 167.522 14.125 113 14.125C95.3155 14.125 77.97 18.8428 62.8351 27.7768C61.1754 28.7444 59.0001 28.2076 58.0043 26.5268C57.0085 24.8529 57.5664 22.6848 59.2544 21.6889C75.4699 12.1193 94.0513 7.0625 113 7.0625C171.414 7.0625 218.938 54.5861 218.938 113C218.938 171.414 171.414 218.938 113 218.938Z" fill="#263238"/>
<path d="M113 201.281C64.3182 201.281 24.7188 161.682 24.7188 113C24.7188 64.3182 64.3182 24.7188 113 24.7188C161.682 24.7188 201.281 64.3182 201.281 113C201.281 161.682 161.682 201.281 113 201.281ZM113 31.7812C68.2167 31.7812 31.7812 68.2167 31.7812 113C31.7812 157.783 68.2167 194.219 113 194.219C157.783 194.219 194.219 157.783 194.219 113C194.219 68.2167 157.783 31.7812 113 31.7812Z" fill="#263238"/>
<path d="M146.547 58.407C145.629 58.407 144.711 58.0539 144.068 57.4182C143.362 56.712 143.016 55.7939 143.016 54.8757C143.016 53.9576 143.369 53.0395 144.068 52.4039C145.41 51.062 147.748 51.062 149.012 52.4039C149.725 53.0395 150.071 53.9576 150.071 54.8757C150.071 55.7939 149.725 56.712 149.019 57.3476C148.383 58.0539 147.465 58.407 146.547 58.407ZM79.4531 174.649C78.535 174.649 77.6169 174.225 76.9742 173.596C76.2679 172.883 75.9219 171.972 75.9219 171.117C75.9219 170.199 76.275 169.281 76.9106 168.582C78.2525 167.304 80.6538 167.304 81.925 168.582C82.6383 169.288 82.9844 170.199 82.9844 171.117C82.9844 171.965 82.6313 172.883 81.9886 173.596C81.2894 174.232 80.3713 174.649 79.4531 174.649ZM171.117 82.9845C170.199 82.9845 169.281 82.6314 168.645 81.9887C167.939 81.2824 167.586 80.3714 167.586 79.4532C167.586 78.5351 167.946 77.617 168.582 76.9743C169.987 75.5689 172.318 75.6395 173.596 76.9743C174.232 77.617 174.649 78.5351 174.649 79.4532C174.649 80.3714 174.295 81.2895 173.596 81.9251C172.961 82.6314 172.035 82.9845 171.117 82.9845ZM54.8756 150.078C53.9575 150.078 53.11 149.725 52.4038 149.082C51.6904 148.313 51.3444 147.394 51.3444 146.547C51.3444 145.629 51.6975 144.781 52.3402 144.068C53.8939 142.663 56.0762 142.733 57.4252 144.068C58.0608 144.711 58.4139 145.629 58.4139 146.547C58.4139 147.465 58.0608 148.383 57.4252 149.019C56.7119 149.725 55.8644 150.078 54.8756 150.078ZM180.094 116.531C179.176 116.531 178.258 116.178 177.615 115.472C176.916 114.836 176.562 113.918 176.562 113C176.562 112.082 176.916 111.164 177.615 110.521C178.893 109.186 181.224 109.186 182.559 110.451C183.272 111.164 183.625 112.082 183.625 113C183.625 113.918 183.272 114.836 182.629 115.472C181.93 116.178 181.012 116.531 180.094 116.531ZM45.9062 116.531C44.9881 116.531 44.07 116.178 43.4273 115.472C42.7281 114.836 42.375 113.918 42.375 113C42.375 112.082 42.7281 111.164 43.4273 110.521C44.7056 109.186 47.0362 109.186 48.3711 110.451C49.0844 111.164 49.4375 112.082 49.4375 113C49.4375 113.918 49.0844 114.836 48.4417 115.472C47.7425 116.178 46.8244 116.531 45.9062 116.531Z" fill="#263238"/>
<path d="M171.117 150.079C170.199 150.079 169.281 149.726 168.582 149.083C167.946 148.377 167.586 147.466 167.586 146.548C167.586 145.63 167.946 144.711 168.582 144.069C169.987 142.663 172.318 142.734 173.596 144.069C174.232 144.711 174.649 145.63 174.649 146.548C174.649 147.466 174.295 148.384 173.596 149.02C172.961 149.726 172.035 150.079 171.117 150.079ZM54.8756 82.9852C53.9575 82.9852 53.11 82.6321 52.4037 81.9894C51.6904 81.2196 51.3444 80.3015 51.3444 79.454C51.3444 78.5358 51.6975 77.6883 52.3402 76.975C53.8939 75.5696 56.0762 75.6402 57.4252 76.975C58.0608 77.6177 58.4139 78.5358 58.4139 79.454C58.4139 80.3721 58.0608 81.2902 57.4252 81.9258C56.7119 82.6321 55.7867 82.9852 54.8756 82.9852Z" fill="#263238"/>
<path d="M146.547 174.648C145.629 174.648 144.711 174.295 144.068 173.659C143.362 172.882 143.016 172.035 143.016 171.117C143.016 170.199 143.369 169.28 144.004 168.581C145.417 167.239 147.684 167.303 149.019 168.581C149.732 169.287 150.078 170.199 150.078 171.117C150.078 171.964 149.725 172.882 149.082 173.596C148.383 174.302 147.465 174.648 146.547 174.648ZM79.4531 58.4062C78.535 58.4062 77.6169 58.0531 76.9742 57.3539C76.275 56.7112 75.9219 55.786 75.9219 54.875C75.9219 53.9639 76.275 53.0387 76.9742 52.4031C78.2525 51.0612 80.5831 51.0612 81.9179 52.3325C82.6312 53.0387 82.9773 53.9498 82.9773 54.8679C82.9773 55.786 82.6313 56.7112 81.925 57.3469C81.2188 58.0531 80.3713 58.4062 79.4531 58.4062Z" fill="#263238"/>
<path d="M113 183.626C112.082 183.626 111.234 183.273 110.521 182.63C109.822 181.86 109.469 181.013 109.469 180.095C109.469 179.176 109.822 178.258 110.458 177.616C111.941 176.21 114.201 176.281 115.472 177.616C116.178 178.258 116.531 179.176 116.531 180.095C116.531 181.013 116.178 181.931 115.472 182.566C114.836 183.273 113.918 183.626 113 183.626ZM113 49.4383C112.082 49.4383 111.234 49.0852 110.521 48.4425C109.822 47.7433 109.469 46.8252 109.469 45.9071C109.469 44.9113 109.822 44.0708 110.458 43.4282C111.941 42.0227 114.201 42.0933 115.472 43.4282C116.178 44.0708 116.531 44.989 116.531 45.9071C116.531 46.8252 116.178 47.7433 115.535 48.379C114.836 49.0852 113.918 49.4383 113 49.4383Z" fill="#263238"/>
<path d="M157.946 68.0544C156.569 66.6772 154.33 66.6772 152.953 68.0544L114.723 106.284C117.202 106.926 119.074 108.798 119.716 111.277L157.946 73.0476C159.33 71.6633 159.33 69.4316 157.946 68.0544ZM111.277 106.284L68.0543 63.0612C66.6771 61.684 64.4383 61.684 63.0611 63.0612C61.6839 64.4384 61.6839 66.6772 63.0611 68.0544L106.284 111.277C106.926 108.798 108.798 106.926 111.277 106.284Z" fill="#263238"/>
<path d="M113 123.594C107.159 123.594 102.406 118.841 102.406 113C102.406 107.159 107.159 102.406 113 102.406C118.841 102.406 123.594 107.159 123.594 113C123.594 118.841 118.841 123.594 113 123.594ZM113 109.469C111.058 109.469 109.469 111.058 109.469 113C109.469 114.942 111.058 116.531 113 116.531C114.942 116.531 116.531 114.942 116.531 113C116.531 111.058 114.942 109.469 113 109.469Z" fill="#263238"/>
<path d="M52.9688 31.7812C52.9688 33.7234 51.3797 35.3125 49.4375 35.3125C47.4953 35.3125 45.9062 33.7234 45.9062 31.7812C45.9062 29.8391 47.4953 28.25 49.4375 28.25C51.3797 28.25 52.9688 29.8391 52.9688 31.7812Z" fill="#263238"/>
</svg>
