<svg width="130" height="149" viewBox="0 0 130 149" fill="none" xmlns="http://www.w3.org/2000/svg">
<path d="M58.0357 116.071H44.1071C43.4915 116.071 42.901 116.316 42.4656 116.751C42.0303 117.187 41.7857 117.777 41.7857 118.393V132.321C41.7857 132.937 42.0303 133.528 42.4656 133.963C42.901 134.398 43.4915 134.643 44.1071 134.643H58.0357C58.6514 134.643 59.2419 134.398 59.6772 133.963C60.1126 133.528 60.3571 132.937 60.3571 132.321V118.393C60.3571 117.777 60.1126 117.187 59.6772 116.751C59.2419 116.316 58.6514 116.071 58.0357 116.071ZM55.7143 130H46.4286V120.714H55.7143V130ZM102.143 133.032C102.325 133.395 102.599 133.704 102.938 133.928C103.277 134.152 103.669 134.283 104.074 134.309H104.218C104.601 134.308 104.977 134.214 105.314 134.033C105.651 133.853 105.938 133.591 106.15 133.273L115.435 119.345C115.605 119.091 115.722 118.807 115.781 118.507C115.841 118.208 115.84 117.901 115.781 117.602C115.721 117.303 115.603 117.018 115.433 116.765C115.264 116.512 115.046 116.294 114.792 116.125C114.539 115.956 114.254 115.838 113.955 115.779C113.656 115.72 113.348 115.72 113.049 115.779C112.75 115.839 112.466 115.957 112.213 116.127C111.959 116.296 111.742 116.514 111.573 116.768L104.506 127.368L101.679 121.671C101.403 121.12 100.921 120.701 100.336 120.505C99.752 120.31 99.1143 120.356 98.5632 120.631C98.0122 120.906 97.593 121.389 97.398 121.973C97.203 122.557 97.248 123.195 97.5232 123.746L102.143 133.032ZM99.8214 106.786H113.75C114.366 106.786 114.956 106.541 115.391 106.106C115.827 105.67 116.071 105.08 116.071 104.464V90.5357C116.071 89.92 115.827 89.3296 115.391 88.8942C114.956 88.4589 114.366 88.2143 113.75 88.2143H99.8214C99.2057 88.2143 98.6153 88.4589 98.1799 88.8942C97.7446 89.3296 97.5 89.92 97.5 90.5357V104.464C97.5 105.08 97.7446 105.67 98.1799 106.106C98.6153 106.541 99.2057 106.786 99.8214 106.786ZM102.143 92.8571H111.429V102.143H102.143V92.8571ZM99.8214 78.9286H113.75C114.366 78.9286 114.956 78.684 115.391 78.2486C115.827 77.8133 116.071 77.2228 116.071 76.6071V62.6786C116.071 62.0629 115.827 61.4724 115.391 61.0371C114.956 60.6017 114.366 60.3571 113.75 60.3571H99.8214C99.2057 60.3571 98.6153 60.6017 98.1799 61.0371C97.7446 61.4724 97.5 62.0629 97.5 62.6786V76.6071C97.5 77.2228 97.7446 77.8133 98.1799 78.2486C98.6153 78.684 99.2057 78.9286 99.8214 78.9286ZM102.143 65H111.429V74.2857H102.143V65ZM16.25 106.786H30.1786C30.7943 106.786 31.3847 106.541 31.8201 106.106C32.2554 105.67 32.5 105.08 32.5 104.464V90.5357C32.5 89.92 32.2554 89.3296 31.8201 88.8942C31.3847 88.4589 30.7943 88.2143 30.1786 88.2143H16.25C15.6343 88.2143 15.0439 88.4589 14.6085 88.8942C14.1732 89.3296 13.9286 89.92 13.9286 90.5357V104.464C13.9286 105.08 14.1732 105.67 14.6085 106.106C15.0439 106.541 15.6343 106.786 16.25 106.786ZM18.5714 92.8571H27.8571V102.143H18.5714V92.8571ZM16.25 134.643H30.1786C30.7943 134.643 31.3847 134.398 31.8201 133.963C32.2554 133.528 32.5 132.937 32.5 132.321V118.393C32.5 117.777 32.2554 117.187 31.8201 116.751C31.3847 116.316 30.7943 116.071 30.1786 116.071H16.25C15.6343 116.071 15.0439 116.316 14.6085 116.751C14.1732 117.187 13.9286 117.777 13.9286 118.393V132.321C13.9286 132.937 14.1732 133.528 14.6085 133.963C15.0439 134.398 15.6343 134.643 16.25 134.643ZM18.5714 120.714H27.8571V130H18.5714V120.714ZM16.25 78.9286H30.1786C30.7943 78.9286 31.3847 78.684 31.8201 78.2486C32.2554 77.8133 32.5 77.2228 32.5 76.6071V62.6786C32.5 62.0629 32.2554 61.4724 31.8201 61.0371C31.3847 60.6017 30.7943 60.3571 30.1786 60.3571H16.25C15.6343 60.3571 15.0439 60.6017 14.6085 61.0371C14.1732 61.4724 13.9286 62.0629 13.9286 62.6786V76.6071C13.9286 77.2228 14.1732 77.8133 14.6085 78.2486C15.0439 78.684 15.6343 78.9286 16.25 78.9286ZM18.5714 65H27.8571V74.2857H18.5714V65ZM118.393 18.5714H116.071V9.28571C116.071 6.82299 115.093 4.46113 113.352 2.71972C111.61 0.978314 109.248 0 106.786 0C104.323 0 101.961 0.978314 100.22 2.71972C98.4783 4.46113 97.5 6.82299 97.5 9.28571V18.5714H32.5V9.28571C32.5 6.82299 31.5217 4.46113 29.7803 2.71972C28.0389 0.978314 25.677 0 23.2143 0C20.7516 0 18.3897 0.978314 16.6483 2.71972C14.9069 4.46113 13.9286 6.82299 13.9286 9.28571V18.5714H11.6071C8.52874 18.5714 5.57642 19.7943 3.39965 21.9711C1.22289 24.1478 0 27.1002 0 30.1786V136.964C0 140.043 1.22289 142.995 3.39965 145.172C5.57642 147.349 8.52874 148.571 11.6071 148.571H118.393C121.471 148.571 124.424 147.349 126.6 145.172C128.777 142.995 130 140.043 130 136.964V30.1786C130 27.1002 128.777 24.1478 126.6 21.9711C124.424 19.7943 121.471 18.5714 118.393 18.5714ZM102.143 9.28571C102.143 8.05435 102.632 6.87342 103.503 6.00272C104.373 5.13201 105.554 4.64286 106.786 4.64286C108.017 4.64286 109.198 5.13201 110.069 6.00272C110.939 6.87342 111.429 8.05435 111.429 9.28571V27.8571C111.429 29.0885 110.939 30.2694 110.069 31.1401C109.198 32.0108 108.017 32.5 106.786 32.5C105.554 32.5 104.373 32.0108 103.503 31.1401C102.632 30.2694 102.143 29.0885 102.143 27.8571V9.28571ZM18.5714 9.28571C18.5714 8.05435 19.0606 6.87342 19.9313 6.00272C20.802 5.13201 21.9829 4.64286 23.2143 4.64286C24.4456 4.64286 25.6266 5.13201 26.4973 6.00272C27.368 6.87342 27.8571 8.05435 27.8571 9.28571V27.8571C27.8571 29.0885 27.368 30.2694 26.4973 31.1401C25.6266 32.0108 24.4456 32.5 23.2143 32.5C21.9829 32.5 20.802 32.0108 19.9313 31.1401C19.0606 30.2694 18.5714 29.0885 18.5714 27.8571V9.28571ZM125.357 136.964C125.357 138.811 124.623 140.583 123.317 141.889C122.011 143.195 120.24 143.929 118.393 143.929H11.6071C9.7601 143.929 7.98871 143.195 6.68265 141.889C5.37659 140.583 4.64286 138.811 4.64286 136.964V51.0714H125.357V136.964ZM125.357 46.4286H4.64286V30.1786C4.64286 28.3315 5.37659 26.5601 6.68265 25.2541C7.98871 23.948 9.7601 23.2143 11.6071 23.2143H13.9286V27.8571C13.9286 30.3199 14.9069 32.6817 16.6483 34.4231C18.3897 36.1645 20.7516 37.1429 23.2143 37.1429C25.677 37.1429 28.0389 36.1645 29.7803 34.4231C31.5217 32.6817 32.5 30.3199 32.5 27.8571V23.2143H97.5V27.8571C97.5 30.3199 98.4783 32.6817 100.22 34.4231C101.961 36.1645 104.323 37.1429 106.786 37.1429C109.248 37.1429 111.61 36.1645 113.352 34.4231C115.093 32.6817 116.071 30.3199 116.071 27.8571V23.2143H118.393C120.24 23.2143 122.011 23.948 123.317 25.2541C124.623 26.5601 125.357 28.3315 125.357 30.1786V46.4286ZM46.4286 77.3175C46.6106 77.6807 46.8848 77.9898 47.2238 78.2139C47.5627 78.4379 47.9545 78.5691 48.36 78.5943H48.5039C48.8862 78.5941 49.2626 78.4995 49.5995 78.3189C49.9364 78.1382 50.2236 77.8772 50.4354 77.5589L59.7211 63.6304C59.8903 63.3767 60.0078 63.0922 60.0671 62.7932C60.1263 62.4941 60.1261 62.1863 60.0664 61.8873C60.0067 61.5883 59.8887 61.304 59.7191 61.0506C59.5495 60.7972 59.3317 60.5797 59.078 60.4105C58.8244 60.2413 58.5399 60.1238 58.2408 60.0645C57.9418 60.0053 57.6339 60.0055 57.3349 60.0652C57.036 60.1249 56.7517 60.2429 56.4983 60.4125C56.2449 60.5821 56.0274 60.7999 55.8582 61.0536L48.7918 71.6532L45.9643 65.9564C45.828 65.6836 45.6393 65.4402 45.409 65.2403C45.1787 65.0404 44.9113 64.8878 44.622 64.7912C44.3327 64.6946 44.0272 64.656 43.723 64.6775C43.4188 64.699 43.1218 64.7802 42.8489 64.9164C42.5761 65.0527 42.3328 65.2414 42.1328 65.4717C41.9329 65.702 41.7803 65.9694 41.6837 66.2587C41.5871 66.548 41.5485 66.8535 41.57 67.1577C41.5915 67.4619 41.6727 67.7589 41.8089 68.0318L46.4286 77.3175ZM71.9643 78.9286H85.8929C86.5085 78.9286 87.099 78.684 87.5344 78.2486C87.9697 77.8133 88.2143 77.2228 88.2143 76.6071V62.6786C88.2143 62.0629 87.9697 61.4724 87.5344 61.0371C87.099 60.6017 86.5085 60.3571 85.8929 60.3571H71.9643C71.3486 60.3571 70.7581 60.6017 70.3228 61.0371C69.8874 61.4724 69.6429 62.0629 69.6429 62.6786V76.6071C69.6429 77.2228 69.8874 77.8133 70.3228 78.2486C70.7581 78.684 71.3486 78.9286 71.9643 78.9286ZM74.2857 65H83.5714V74.2857H74.2857V65ZM71.9643 134.643H85.8929C86.5085 134.643 87.099 134.398 87.5344 133.963C87.9697 133.528 88.2143 132.937 88.2143 132.321V118.393C88.2143 117.777 87.9697 117.187 87.5344 116.751C87.099 116.316 86.5085 116.071 85.8929 116.071H71.9643C71.3486 116.071 70.7581 116.316 70.3228 116.751C69.8874 117.187 69.6429 117.777 69.6429 118.393V132.321C69.6429 132.937 69.8874 133.528 70.3228 133.963C70.7581 134.398 71.3486 134.643 71.9643 134.643ZM74.2857 120.714H83.5714V130H74.2857V120.714ZM71.9643 106.786H85.8929C86.5085 106.786 87.099 106.541 87.5344 106.106C87.9697 105.67 88.2143 105.08 88.2143 104.464V90.5357C88.2143 89.92 87.9697 89.3296 87.5344 88.8942C87.099 88.4589 86.5085 88.2143 85.8929 88.2143H71.9643C71.3486 88.2143 70.7581 88.4589 70.3228 88.8942C69.8874 89.3296 69.6429 89.92 69.6429 90.5357V104.464C69.6429 105.08 69.8874 105.67 70.3228 106.106C70.7581 106.541 71.3486 106.786 71.9643 106.786ZM74.2857 92.8571H83.5714V102.143H74.2857V92.8571ZM58.0357 88.2143H44.1071C43.4915 88.2143 42.901 88.4589 42.4656 88.8942C42.0303 89.3296 41.7857 89.92 41.7857 90.5357V104.464C41.7857 105.08 42.0303 105.67 42.4656 106.106C42.901 106.541 43.4915 106.786 44.1071 106.786H58.0357C58.6514 106.786 59.2419 106.541 59.6772 106.106C60.1126 105.67 60.3571 105.08 60.3571 104.464V90.5357C60.3571 89.92 60.1126 89.3296 59.6772 88.8942C59.2419 88.4589 58.6514 88.2143 58.0357 88.2143ZM55.7143 102.143H46.4286V92.8571H55.7143V102.143Z" fill="black"/>
</svg>
