<svg width="100%" height="100%" id="svg" viewBox="0 0 1440 590" xmlns="http://www.w3.org/2000/svg" class="transition duration-300 ease-in-out delay-150"><path d="M 0,600 L 0,300 C 118.29665071770336,279.6555023923445 236.59330143540672,259.311004784689 325,231 C 413.4066985645933,202.68899521531102 471.92344497607667,166.41148325358853 555,157 C 638.0765550239233,147.58851674641147 745.7129186602871,165.04306220095694 842,147 C 938.2870813397129,128.95693779904306 1023.2248803827752,75.41626794258373 1121,45 C 1218.7751196172248,14.583732057416265 1329.3875598086124,7.2918660287081325 1440,0 L 1440,600 L 0,600 Z" stroke="none" stroke-width="0" fill="#41b06e" fill-opacity="0.53" class="transition-all duration-300 ease-in-out delay-150 path-0"></path><path d="M 0,600 L 0,500 C 67.17703349282297,500.2105263157895 134.35406698564594,500.4210526315789 247,498 C 359.64593301435406,495.5789473684211 517.7607655502394,490.5263157894737 623,463 C 728.2392344497606,435.4736842105263 780.602870813397,385.4736842105263 868,335 C 955.397129186603,284.5263157894737 1077.8277511961721,233.57894736842107 1179,211 C 1280.1722488038279,188.42105263157893 1360.0861244019138,194.21052631578948 1440,200 L 1440,600 L 0,600 Z" stroke="none" stroke-width="0" fill="#41b06e" fill-opacity="1" class="transition-all duration-300 ease-in-out delay-150 path-1"></path></svg>